# Blender 4.4.0
# www.blender.org
o Cylinder
v 0.000000 -0.500000 -0.100000
v 0.000000 0.500000 -0.100000
v 0.012558 -0.500000 -0.099211
v 0.012558 0.500000 -0.099211
v 0.024918 -0.500000 -0.096858
v 0.024918 0.500000 -0.096858
v 0.036885 -0.500000 -0.092978
v 0.036885 0.500000 -0.092978
v 0.048271 -0.500000 -0.087631
v 0.048271 0.500000 -0.087631
v 0.058895 -0.500000 -0.080902
v 0.058895 0.500000 -0.080902
v 0.068590 -0.500000 -0.072897
v 0.068590 0.500000 -0.072897
v 0.077204 -0.500000 -0.063742
v 0.077204 0.500000 -0.063742
v 0.084600 -0.500000 -0.053583
v 0.084600 0.500000 -0.053583
v 0.090662 -0.500000 -0.042578
v 0.090662 0.500000 -0.042578
v 0.095294 -0.500000 -0.030902
v 0.095294 0.500000 -0.030902
v 0.098423 -0.500000 -0.018738
v 0.098423 0.500000 -0.018738
v 0.100000 -0.500000 -0.006279
v 0.100000 0.500000 -0.006279
v 0.100000 -0.500000 0.006279
v 0.100000 0.500000 0.006279
v 0.098423 -0.500000 0.018738
v 0.098423 0.500000 0.018738
v 0.095294 -0.500000 0.030902
v 0.095294 0.500000 0.030902
v 0.090662 -0.500000 0.042578
v 0.090662 0.500000 0.042578
v 0.084600 -0.500000 0.053583
v 0.084600 0.500000 0.053583
v 0.077204 -0.500000 0.063742
v 0.077204 0.500000 0.063742
v 0.068590 -0.500000 0.072897
v 0.068590 0.500000 0.072897
v 0.058895 -0.500000 0.080902
v 0.058895 0.500000 0.080902
v 0.048271 -0.500000 0.087631
v 0.048271 0.500000 0.087631
v 0.036885 -0.500000 0.092978
v 0.036885 0.500000 0.092978
v 0.024918 -0.500000 0.096858
v 0.024918 0.500000 0.096858
v 0.012558 -0.500000 0.099211
v 0.012558 0.500000 0.099211
v 0.000000 -0.500000 0.100000
v 0.000000 0.500000 0.100000
v -0.012558 -0.500000 0.099211
v -0.012558 0.500000 0.099211
v -0.024918 -0.500000 0.096858
v -0.024918 0.500000 0.096858
v -0.036885 -0.500000 0.092978
v -0.036885 0.500000 0.092978
v -0.048271 -0.500000 0.087631
v -0.048271 0.500000 0.087631
v -0.058895 -0.500000 0.080902
v -0.058895 0.500000 0.080902
v -0.068590 -0.500000 0.072897
v -0.068590 0.500000 0.072897
v -0.077204 -0.500000 0.063742
v -0.077204 0.500000 0.063742
v -0.084600 -0.500000 0.053583
v -0.084600 0.500000 0.053583
v -0.090662 -0.500000 0.042578
v -0.090662 0.500000 0.042578
v -0.095294 -0.500000 0.030902
v -0.095294 0.500000 0.030902
v -0.098423 -0.500000 0.018738
v -0.098423 0.500000 0.018738
v -0.100000 -0.500000 0.006279
v -0.100000 0.500000 0.006279
v -0.100000 -0.500000 -0.006279
v -0.100000 0.500000 -0.006279
v -0.098423 -0.500000 -0.018738
v -0.098423 0.500000 -0.018738
v -0.095294 -0.500000 -0.030902
v -0.095294 0.500000 -0.030902
v -0.090662 -0.500000 -0.042578
v -0.090662 0.500000 -0.042578
v -0.084600 -0.500000 -0.053583
v -0.084600 0.500000 -0.053583
v -0.077204 -0.500000 -0.063742
v -0.077204 0.500000 -0.063742
v -0.068590 -0.500000 -0.072897
v -0.068590 0.500000 -0.072897
v -0.058895 -0.500000 -0.080902
v -0.058895 0.500000 -0.080902
v -0.048271 -0.500000 -0.087631
v -0.048271 0.500000 -0.087631
v -0.036885 -0.500000 -0.092978
v -0.036885 0.500000 -0.092978
v -0.024918 -0.500000 -0.096858
v -0.024918 0.500000 -0.096858
v -0.012558 -0.500000 -0.099211
v -0.012558 0.500000 -0.099211
vn 0.0627 -0.0000 -0.9980
vn 0.1870 -0.0000 -0.9824
vn 0.3085 -0.0000 -0.9512
vn 0.4251 -0.0000 -0.9052
vn 0.5351 -0.0000 -0.8448
vn 0.6367 -0.0000 -0.7711
vn 0.7283 -0.0000 -0.6853
vn 0.8085 -0.0000 -0.5885
vn 0.8759 -0.0000 -0.4825
vn 0.9295 -0.0000 -0.3688
vn 0.9685 -0.0000 -0.2492
vn 0.9921 -0.0000 -0.1256
vn 1.0000 -0.0000 -0.0000
vn 0.9921 -0.0000 0.1256
vn 0.9685 -0.0000 0.2492
vn 0.9295 -0.0000 0.3688
vn 0.8759 -0.0000 0.4825
vn 0.8085 -0.0000 0.5885
vn 0.7283 -0.0000 0.6853
vn 0.6367 -0.0000 0.7711
vn 0.5351 -0.0000 0.8448
vn 0.4251 -0.0000 0.9052
vn 0.3085 -0.0000 0.9512
vn 0.1870 -0.0000 0.9824
vn 0.0627 -0.0000 0.9980
vn -0.0627 -0.0000 0.9980
vn -0.1870 -0.0000 0.9824
vn -0.3085 -0.0000 0.9512
vn -0.4251 -0.0000 0.9052
vn -0.5351 -0.0000 0.8448
vn -0.6367 -0.0000 0.7711
vn -0.7283 -0.0000 0.6853
vn -0.8085 -0.0000 0.5885
vn -0.8759 -0.0000 0.4825
vn -0.9295 -0.0000 0.3688
vn -0.9685 -0.0000 0.2492
vn -0.9921 -0.0000 0.1256
vn -1.0000 -0.0000 -0.0000
vn -0.9921 -0.0000 -0.1256
vn -0.9685 -0.0000 -0.2492
vn -0.9295 -0.0000 -0.3688
vn -0.8759 -0.0000 -0.4825
vn -0.8085 -0.0000 -0.5885
vn -0.7283 -0.0000 -0.6853
vn -0.6367 -0.0000 -0.7711
vn -0.5351 -0.0000 -0.8448
vn -0.4251 -0.0000 -0.9052
vn -0.3085 -0.0000 -0.9512
vn -0.0000 1.0000 -0.0000
vn -0.1870 -0.0000 -0.9824
vn -0.0627 -0.0000 -0.9980
vn -0.0000 -1.0000 -0.0000
vt 1.000000 0.500000
vt 1.000000 1.000000
vt 0.980000 1.000000
vt 0.980000 0.500000
vt 0.960000 1.000000
vt 0.960000 0.500000
vt 0.940000 1.000000
vt 0.940000 0.500000
vt 0.920000 1.000000
vt 0.920000 0.500000
vt 0.900000 1.000000
vt 0.900000 0.500000
vt 0.880000 1.000000
vt 0.880000 0.500000
vt 0.860000 1.000000
vt 0.860000 0.500000
vt 0.840000 1.000000
vt 0.840000 0.500000
vt 0.820000 1.000000
vt 0.820000 0.500000
vt 0.800000 1.000000
vt 0.800000 0.500000
vt 0.780000 1.000000
vt 0.780000 0.500000
vt 0.760000 1.000000
vt 0.760000 0.500000
vt 0.740000 1.000000
vt 0.740000 0.500000
vt 0.720000 1.000000
vt 0.720000 0.500000
vt 0.700000 1.000000
vt 0.700000 0.500000
vt 0.680000 1.000000
vt 0.680000 0.500000
vt 0.660000 1.000000
vt 0.660000 0.500000
vt 0.640000 1.000000
vt 0.640000 0.500000
vt 0.620000 1.000000
vt 0.620000 0.500000
vt 0.600000 1.000000
vt 0.600000 0.500000
vt 0.580000 1.000000
vt 0.580000 0.500000
vt 0.560000 1.000000
vt 0.560000 0.500000
vt 0.540000 1.000000
vt 0.540000 0.500000
vt 0.520000 1.000000
vt 0.520000 0.500000
vt 0.500000 1.000000
vt 0.500000 0.500000
vt 0.480000 1.000000
vt 0.480000 0.500000
vt 0.460000 1.000000
vt 0.460000 0.500000
vt 0.440000 1.000000
vt 0.440000 0.500000
vt 0.420000 1.000000
vt 0.420000 0.500000
vt 0.400000 1.000000
vt 0.400000 0.500000
vt 0.380000 1.000000
vt 0.380000 0.500000
vt 0.360000 1.000000
vt 0.360000 0.500000
vt 0.340000 1.000000
vt 0.340000 0.500000
vt 0.320000 1.000000
vt 0.320000 0.500000
vt 0.300000 1.000000
vt 0.300000 0.500000
vt 0.280000 1.000000
vt 0.280000 0.500000
vt 0.260000 1.000000
vt 0.260000 0.500000
vt 0.240000 1.000000
vt 0.240000 0.500000
vt 0.220000 1.000000
vt 0.220000 0.500000
vt 0.200000 1.000000
vt 0.200000 0.500000
vt 0.180000 1.000000
vt 0.180000 0.500000
vt 0.160000 1.000000
vt 0.160000 0.500000
vt 0.140000 1.000000
vt 0.140000 0.500000
vt 0.120000 1.000000
vt 0.120000 0.500000
vt 0.100000 1.000000
vt 0.100000 0.500000
vt 0.080000 1.000000
vt 0.080000 0.500000
vt 0.060000 1.000000
vt 0.060000 0.500000
vt 0.040000 1.000000
vt 0.040000 0.500000
vt 0.280080 0.488108
vt 0.250000 0.490000
vt 0.219920 0.488108
vt 0.190314 0.482460
vt 0.161650 0.473146
vt 0.134379 0.460314
vt 0.108932 0.444164
vt 0.085709 0.424952
vt 0.065077 0.402982
vt 0.047361 0.378598
vt 0.032842 0.352187
vt 0.021746 0.324164
vt 0.014251 0.294972
vt 0.010474 0.265070
vt 0.010474 0.234930
vt 0.014251 0.205028
vt 0.021746 0.175836
vt 0.032842 0.147813
vt 0.047361 0.121402
vt 0.065077 0.097018
vt 0.085709 0.075048
vt 0.108932 0.055836
vt 0.134379 0.039686
vt 0.161650 0.026854
vt 0.190314 0.017540
vt 0.219920 0.011892
vt 0.250000 0.010000
vt 0.280080 0.011892
vt 0.309686 0.017540
vt 0.338350 0.026854
vt 0.365621 0.039686
vt 0.391068 0.055836
vt 0.414291 0.075048
vt 0.434923 0.097018
vt 0.452639 0.121402
vt 0.467158 0.147813
vt 0.478254 0.175836
vt 0.485749 0.205028
vt 0.489526 0.234930
vt 0.489526 0.265070
vt 0.485749 0.294972
vt 0.478254 0.324164
vt 0.467158 0.352187
vt 0.452639 0.378598
vt 0.434923 0.402982
vt 0.414291 0.424952
vt 0.391068 0.444164
vt 0.365621 0.460314
vt 0.338350 0.473146
vt 0.309686 0.482460
vt 0.020000 1.000000
vt 0.020000 0.500000
vt 0.000000 1.000000
vt 0.000000 0.500000
vt 0.750000 0.490000
vt 0.780080 0.488108
vt 0.809686 0.482460
vt 0.838350 0.473146
vt 0.865621 0.460314
vt 0.891068 0.444164
vt 0.914291 0.424952
vt 0.934923 0.402982
vt 0.952639 0.378598
vt 0.967158 0.352187
vt 0.978254 0.324164
vt 0.985749 0.294972
vt 0.989526 0.265070
vt 0.989526 0.234930
vt 0.985749 0.205028
vt 0.978254 0.175836
vt 0.967158 0.147813
vt 0.952639 0.121402
vt 0.934923 0.097018
vt 0.914291 0.075048
vt 0.891068 0.055836
vt 0.865621 0.039686
vt 0.838350 0.026854
vt 0.809686 0.017540
vt 0.780080 0.011892
vt 0.750000 0.010000
vt 0.719920 0.011892
vt 0.690314 0.017540
vt 0.661650 0.026854
vt 0.634379 0.039686
vt 0.608932 0.055836
vt 0.585709 0.075048
vt 0.565077 0.097018
vt 0.547361 0.121402
vt 0.532842 0.147813
vt 0.521746 0.175836
vt 0.514251 0.205028
vt 0.510474 0.234930
vt 0.510474 0.265070
vt 0.514251 0.294972
vt 0.521746 0.324164
vt 0.532842 0.352187
vt 0.547361 0.378598
vt 0.565077 0.402982
vt 0.585709 0.424952
vt 0.608932 0.444164
vt 0.634379 0.460314
vt 0.661650 0.473146
vt 0.690314 0.482460
vt 0.719920 0.488108
s 0
f 1/1/1 2/2/1 4/3/1 3/4/1
f 3/4/2 4/3/2 6/5/2 5/6/2
f 5/6/3 6/5/3 8/7/3 7/8/3
f 7/8/4 8/7/4 10/9/4 9/10/4
f 9/10/5 10/9/5 12/11/5 11/12/5
f 11/12/6 12/11/6 14/13/6 13/14/6
f 13/14/7 14/13/7 16/15/7 15/16/7
f 15/16/8 16/15/8 18/17/8 17/18/8
f 17/18/9 18/17/9 20/19/9 19/20/9
f 19/20/10 20/19/10 22/21/10 21/22/10
f 21/22/11 22/21/11 24/23/11 23/24/11
f 23/24/12 24/23/12 26/25/12 25/26/12
f 25/26/13 26/25/13 28/27/13 27/28/13
f 27/28/14 28/27/14 30/29/14 29/30/14
f 29/30/15 30/29/15 32/31/15 31/32/15
f 31/32/16 32/31/16 34/33/16 33/34/16
f 33/34/17 34/33/17 36/35/17 35/36/17
f 35/36/18 36/35/18 38/37/18 37/38/18
f 37/38/19 38/37/19 40/39/19 39/40/19
f 39/40/20 40/39/20 42/41/20 41/42/20
f 41/42/21 42/41/21 44/43/21 43/44/21
f 43/44/22 44/43/22 46/45/22 45/46/22
f 45/46/23 46/45/23 48/47/23 47/48/23
f 47/48/24 48/47/24 50/49/24 49/50/24
f 49/50/25 50/49/25 52/51/25 51/52/25
f 51/52/26 52/51/26 54/53/26 53/54/26
f 53/54/27 54/53/27 56/55/27 55/56/27
f 55/56/28 56/55/28 58/57/28 57/58/28
f 57/58/29 58/57/29 60/59/29 59/60/29
f 59/60/30 60/59/30 62/61/30 61/62/30
f 61/62/31 62/61/31 64/63/31 63/64/31
f 63/64/32 64/63/32 66/65/32 65/66/32
f 65/66/33 66/65/33 68/67/33 67/68/33
f 67/68/34 68/67/34 70/69/34 69/70/34
f 69/70/35 70/69/35 72/71/35 71/72/35
f 71/72/36 72/71/36 74/73/36 73/74/36
f 73/74/37 74/73/37 76/75/37 75/76/37
f 75/76/38 76/75/38 78/77/38 77/78/38
f 77/78/39 78/77/39 80/79/39 79/80/39
f 79/80/40 80/79/40 82/81/40 81/82/40
f 81/82/41 82/81/41 84/83/41 83/84/41
f 83/84/42 84/83/42 86/85/42 85/86/42
f 85/86/43 86/85/43 88/87/43 87/88/43
f 87/88/44 88/87/44 90/89/44 89/90/44
f 89/90/45 90/89/45 92/91/45 91/92/45
f 91/92/46 92/91/46 94/93/46 93/94/46
f 93/94/47 94/93/47 96/95/47 95/96/47
f 95/96/48 96/95/48 98/97/48 97/98/48
f 4/99/49 2/100/49 100/101/49 98/102/49 96/103/49 94/104/49 92/105/49 90/106/49 88/107/49 86/108/49 84/109/49 82/110/49 80/111/49 78/112/49 76/113/49 74/114/49 72/115/49 70/116/49 68/117/49 66/118/49 64/119/49 62/120/49 60/121/49 58/122/49 56/123/49 54/124/49 52/125/49 50/126/49 48/127/49 46/128/49 44/129/49 42/130/49 40/131/49 38/132/49 36/133/49 34/134/49 32/135/49 30/136/49 28/137/49 26/138/49 24/139/49 22/140/49 20/141/49 18/142/49 16/143/49 14/144/49 12/145/49 10/146/49 8/147/49 6/148/49
f 97/98/50 98/97/50 100/149/50 99/150/50
f 99/150/51 100/149/51 2/151/51 1/152/51
f 1/153/52 3/154/52 5/155/52 7/156/52 9/157/52 11/158/52 13/159/52 15/160/52 17/161/52 19/162/52 21/163/52 23/164/52 25/165/52 27/166/52 29/167/52 31/168/52 33/169/52 35/170/52 37/171/52 39/172/52 41/173/52 43/174/52 45/175/52 47/176/52 49/177/52 51/178/52 53/179/52 55/180/52 57/181/52 59/182/52 61/183/52 63/184/52 65/185/52 67/186/52 69/187/52 71/188/52 73/189/52 75/190/52 77/191/52 79/192/52 81/193/52 83/194/52 85/195/52 87/196/52 89/197/52 91/198/52 93/199/52 95/200/52 97/201/52 99/202/52
o Cone
v 0.000000 0.493110 -0.250000
v 0.048773 0.493110 -0.245196
v 0.095671 0.493110 -0.230970
v 0.138893 0.493110 -0.207867
v 0.176777 0.493110 -0.176777
v 0.207867 0.493110 -0.138893
v 0.230970 0.493110 -0.095671
v 0.245196 0.493110 -0.048773
v 0.250000 0.493110 0.000000
v 0.245196 0.493110 0.048773
v 0.230970 0.493110 0.095671
v 0.207867 0.493110 0.138893
v 0.176777 0.493110 0.176777
v 0.138893 0.493110 0.207867
v 0.095671 0.493110 0.230970
v 0.048773 0.493110 0.245196
v 0.000000 0.493110 0.250000
v -0.048773 0.493110 0.245196
v -0.095671 0.493110 0.230970
v -0.138893 0.493110 0.207867
v -0.176777 0.493110 0.176777
v -0.207867 0.493110 0.138893
v -0.230970 0.493110 0.095671
v -0.245196 0.493110 0.048773
v -0.250000 0.493110 0.000000
v -0.245196 0.493110 -0.048773
v -0.230970 0.493110 -0.095671
v -0.207867 0.493110 -0.138893
v -0.176777 0.493110 -0.176777
v -0.138893 0.493110 -0.207867
v -0.095671 0.493110 -0.230970
v -0.048773 0.493110 -0.245196
v 0.000000 1.234066 0.000000
vn 0.0929 0.3183 -0.9434
vn 0.2752 0.3183 -0.9072
vn 0.4469 0.3183 -0.8360
vn 0.6014 0.3183 -0.7328
vn 0.7328 0.3183 -0.6014
vn 0.8360 0.3183 -0.4469
vn 0.9072 0.3183 -0.2752
vn 0.9434 0.3183 -0.0929
vn 0.9434 0.3183 0.0929
vn 0.9072 0.3183 0.2752
vn 0.8360 0.3183 0.4469
vn 0.7328 0.3183 0.6014
vn 0.6014 0.3183 0.7328
vn 0.4469 0.3183 0.8360
vn 0.2752 0.3183 0.9072
vn 0.0929 0.3183 0.9434
vn -0.0929 0.3183 0.9434
vn -0.2752 0.3183 0.9072
vn -0.4469 0.3183 0.8360
vn -0.6014 0.3183 0.7328
vn -0.7328 0.3183 0.6014
vn -0.8360 0.3183 0.4469
vn -0.9072 0.3183 0.2752
vn -0.9434 0.3183 0.0929
vn -0.9434 0.3183 -0.0929
vn -0.9072 0.3183 -0.2752
vn -0.8360 0.3183 -0.4469
vn -0.7328 0.3183 -0.6014
vn -0.6014 0.3183 -0.7328
vn -0.4469 0.3183 -0.8360
vn -0.0000 -1.0000 -0.0000
vn -0.2752 0.3183 -0.9072
vn -0.0929 0.3183 -0.9434
vt 0.250000 0.490000
vt 0.250000 0.250000
vt 0.296822 0.485388
vt 0.341844 0.471731
vt 0.383337 0.449553
vt 0.419706 0.419706
vt 0.449553 0.383337
vt 0.471731 0.341844
vt 0.485388 0.296822
vt 0.490000 0.250000
vt 0.485388 0.203178
vt 0.471731 0.158156
vt 0.449553 0.116663
vt 0.419706 0.080294
vt 0.383337 0.050447
vt 0.341844 0.028269
vt 0.296822 0.014612
vt 0.250000 0.010000
vt 0.203178 0.014612
vt 0.158156 0.028269
vt 0.116663 0.050447
vt 0.080294 0.080294
vt 0.050447 0.116663
vt 0.028269 0.158156
vt 0.014612 0.203178
vt 0.010000 0.250000
vt 0.014612 0.296822
vt 0.028269 0.341844
vt 0.050447 0.383337
vt 0.080294 0.419706
vt 0.116663 0.449553
vt 0.158156 0.471731
vt 0.750000 0.490000
vt 0.796822 0.485388
vt 0.841844 0.471731
vt 0.883337 0.449553
vt 0.919706 0.419706
vt 0.949553 0.383337
vt 0.971731 0.341844
vt 0.985388 0.296822
vt 0.990000 0.250000
vt 0.985388 0.203178
vt 0.971731 0.158156
vt 0.949553 0.116663
vt 0.919706 0.080294
vt 0.883337 0.050447
vt 0.841844 0.028269
vt 0.796822 0.014612
vt 0.750000 0.010000
vt 0.703178 0.014612
vt 0.658156 0.028269
vt 0.616663 0.050447
vt 0.580294 0.080294
vt 0.550447 0.116663
vt 0.528269 0.158156
vt 0.514612 0.203178
vt 0.510000 0.250000
vt 0.514612 0.296822
vt 0.528269 0.341844
vt 0.550447 0.383337
vt 0.580294 0.419706
vt 0.616663 0.449553
vt 0.658156 0.471731
vt 0.703178 0.485388
vt 0.203178 0.485388
s 0
f 101/203/53 133/204/53 102/205/53
f 102/205/54 133/204/54 103/206/54
f 103/206/55 133/204/55 104/207/55
f 104/207/56 133/204/56 105/208/56
f 105/208/57 133/204/57 106/209/57
f 106/209/58 133/204/58 107/210/58
f 107/210/59 133/204/59 108/211/59
f 108/211/60 133/204/60 109/212/60
f 109/212/61 133/204/61 110/213/61
f 110/213/62 133/204/62 111/214/62
f 111/214/63 133/204/63 112/215/63
f 112/215/64 133/204/64 113/216/64
f 113/216/65 133/204/65 114/217/65
f 114/217/66 133/204/66 115/218/66
f 115/218/67 133/204/67 116/219/67
f 116/219/68 133/204/68 117/220/68
f 117/220/69 133/204/69 118/221/69
f 118/221/70 133/204/70 119/222/70
f 119/222/71 133/204/71 120/223/71
f 120/223/72 133/204/72 121/224/72
f 121/224/73 133/204/73 122/225/73
f 122/225/74 133/204/74 123/226/74
f 123/226/75 133/204/75 124/227/75
f 124/227/76 133/204/76 125/228/76
f 125/228/77 133/204/77 126/229/77
f 126/229/78 133/204/78 127/230/78
f 127/230/79 133/204/79 128/231/79
f 128/231/80 133/204/80 129/232/80
f 129/232/81 133/204/81 130/233/81
f 130/233/82 133/204/82 131/234/82
f 101/235/83 102/236/83 103/237/83 104/238/83 105/239/83 106/240/83 107/241/83 108/242/83 109/243/83 110/244/83 111/245/83 112/246/83 113/247/83 114/248/83 115/249/83 116/250/83 117/251/83 118/252/83 119/253/83 120/254/83 121/255/83 122/256/83 123/257/83 124/258/83 125/259/83 126/260/83 127/261/83 128/262/83 129/263/83 130/264/83 131/265/83 132/266/83
f 131/234/84 133/204/84 132/267/84
f 132/267/85 133/204/85 101/203/85
