# Blender 4.4.0
# www.blender.org
o Cylinder
v 0.000000 0.500000 0.500000
v 0.000000 -0.500000 0.500000
v 0.062791 0.500000 0.496057
v 0.062791 -0.500000 0.496057
v 0.124591 0.500000 0.484292
v 0.124591 -0.500000 0.484291
v 0.184426 0.500000 0.464888
v 0.184426 -0.500000 0.464888
v 0.241353 0.500000 0.438153
v 0.241353 -0.500000 0.438153
v 0.294474 0.500000 0.404509
v 0.294474 -0.500000 0.404508
v 0.342950 0.500000 0.364484
v 0.342950 -0.500000 0.364484
v 0.386018 0.500000 0.318712
v 0.386018 -0.500000 0.318712
v 0.422999 0.500000 0.267914
v 0.422999 -0.500000 0.267913
v 0.453308 0.500000 0.212890
v 0.453308 -0.500000 0.212890
v 0.476469 0.500000 0.154509
v 0.476469 -0.500000 0.154508
v 0.492115 0.500000 0.093691
v 0.492115 -0.500000 0.093691
v 0.500000 0.500000 0.031395
v 0.500000 -0.500000 0.031395
v 0.500000 0.500000 -0.031395
v 0.500000 -0.500000 -0.031395
v 0.492115 0.500000 -0.093691
v 0.492115 -0.500000 -0.093691
v 0.476469 0.500000 -0.154508
v 0.476469 -0.500000 -0.154509
v 0.453308 0.500000 -0.212890
v 0.453308 -0.500000 -0.212890
v 0.422999 0.500000 -0.267913
v 0.422999 -0.500000 -0.267914
v 0.386018 0.500000 -0.318712
v 0.386018 -0.500000 -0.318712
v 0.342950 0.500000 -0.364484
v 0.342950 -0.500000 -0.364484
v 0.294474 0.500000 -0.404508
v 0.294474 -0.500000 -0.404509
v 0.241353 0.500000 -0.438153
v 0.241353 -0.500000 -0.438153
v 0.184426 0.500000 -0.464888
v 0.184426 -0.500000 -0.464888
v 0.124591 0.500000 -0.484291
v 0.124591 -0.500000 -0.484292
v 0.062791 0.500000 -0.496057
v 0.062791 -0.500000 -0.496057
v 0.000000 0.500000 -0.500000
v 0.000000 -0.500000 -0.500000
v -0.062791 0.500000 -0.496057
v -0.062791 -0.500000 -0.496057
v -0.124591 0.500000 -0.484291
v -0.124591 -0.500000 -0.484292
v -0.184426 0.500000 -0.464888
v -0.184426 -0.500000 -0.464888
v -0.241353 0.500000 -0.438153
v -0.241353 -0.500000 -0.438153
v -0.294474 0.500000 -0.404508
v -0.294474 -0.500000 -0.404509
v -0.342950 0.500000 -0.364484
v -0.342950 -0.500000 -0.364484
v -0.386018 0.500000 -0.318712
v -0.386018 -0.500000 -0.318712
v -0.422999 0.500000 -0.267913
v -0.422999 -0.500000 -0.267914
v -0.453308 0.500000 -0.212890
v -0.453308 -0.500000 -0.212890
v -0.476469 0.500000 -0.154508
v -0.476469 -0.500000 -0.154509
v -0.492115 0.500000 -0.093691
v -0.492115 -0.500000 -0.093691
v -0.500000 0.500000 -0.031395
v -0.500000 -0.500000 -0.031395
v -0.500000 0.500000 0.031395
v -0.500000 -0.500000 0.031395
v -0.492115 0.500000 0.093691
v -0.492115 -0.500000 0.093691
v -0.476469 0.500000 0.154509
v -0.476469 -0.500000 0.154508
v -0.453308 0.500000 0.212890
v -0.453308 -0.500000 0.212890
v -0.422999 0.500000 0.267914
v -0.422999 -0.500000 0.267913
v -0.386018 0.500000 0.318712
v -0.386018 -0.500000 0.318712
v -0.342950 0.500000 0.364484
v -0.342950 -0.500000 0.364484
v -0.294474 0.500000 0.404509
v -0.294474 -0.500000 0.404508
v -0.241353 0.500000 0.438153
v -0.241353 -0.500000 0.438153
v -0.184426 0.500000 0.464888
v -0.184426 -0.500000 0.464888
v -0.124591 0.500000 0.484292
v -0.124591 -0.500000 0.484291
v -0.062791 0.500000 0.496057
v -0.062791 -0.500000 0.496057
vn -0.0000 -0.0000 1.0000
vn 0.1225 -0.0000 0.9925
vn 0.2443 -0.0000 0.9697
vn 0.3634 -0.0000 0.9316
vn 0.4774 -0.0000 0.8787
vn 0.5841 -0.0000 0.8117
vn 0.6816 -0.0000 0.7318
vn 0.6816 -0.0000 0.7317
vn 0.7683 -0.0000 0.6401
vn 0.8428 -0.0000 0.5383
vn 0.9038 -0.0000 0.4279
vn 0.9505 -0.0000 0.3106
vn 0.9821 -0.0000 0.1884
vn 0.9980 -0.0000 0.0631
vn 0.9980 -0.0000 -0.0631
vn 0.9821 -0.0000 -0.1884
vn 0.9505 -0.0000 -0.3106
vn 0.9038 -0.0000 -0.4279
vn 0.8428 -0.0000 -0.5383
vn 0.7683 -0.0000 -0.6401
vn 0.6816 -0.0000 -0.7317
vn 0.6816 -0.0000 -0.7318
vn 0.5841 -0.0000 -0.8117
vn 0.4774 -0.0000 -0.8787
vn 0.3634 -0.0000 -0.9316
vn 0.2443 -0.0000 -0.9697
vn 0.1225 -0.0000 -0.9925
vn -0.0000 -0.0000 -1.0000
vn -0.1225 -0.0000 -0.9925
vn -0.2443 -0.0000 -0.9697
vn -0.3634 -0.0000 -0.9316
vn -0.4774 -0.0000 -0.8787
vn -0.5841 -0.0000 -0.8117
vn -0.6816 -0.0000 -0.7318
vn -0.6816 -0.0000 -0.7317
vn -0.7683 -0.0000 -0.6401
vn -0.8428 -0.0000 -0.5383
vn -0.9038 -0.0000 -0.4279
vn -0.9505 -0.0000 -0.3106
vn -0.9821 -0.0000 -0.1884
vn -0.9980 -0.0000 -0.0631
vn -0.9980 -0.0000 0.0631
vn -0.9821 -0.0000 0.1884
vn -0.9505 -0.0000 0.3106
vn -0.9038 -0.0000 0.4279
vn -0.8428 -0.0000 0.5383
vn -0.7683 -0.0000 0.6401
vn -0.6816 -0.0000 0.7317
vn -0.6816 -0.0000 0.7318
vn -0.5841 -0.0000 0.8117
vn -0.4774 -0.0000 0.8787
vn -0.3634 -0.0000 0.9316
vn -0.2443 -0.0000 0.9697
vn -0.0000 -1.0000 -0.0000
vn -0.1225 -0.0000 0.9925
vn -0.0000 1.0000 -0.0000
vt 1.000000 1.000000
vt 0.980000 0.500000
vt 1.000000 0.500000
vt 0.980000 1.000000
vt 0.960000 0.500000
vt 0.960000 1.000000
vt 0.940000 0.500000
vt 0.940000 1.000000
vt 0.920000 0.500000
vt 0.920000 1.000000
vt 0.900000 0.500000
vt 0.900000 1.000000
vt 0.880000 0.500000
vt 0.880000 1.000000
vt 0.860000 0.500000
vt 0.860000 1.000000
vt 0.840000 0.500000
vt 0.840000 1.000000
vt 0.820000 0.500000
vt 0.820000 1.000000
vt 0.800000 0.500000
vt 0.800000 1.000000
vt 0.780000 0.500000
vt 0.780000 1.000000
vt 0.760000 0.500000
vt 0.760000 1.000000
vt 0.740000 0.500000
vt 0.740000 1.000000
vt 0.720000 0.500000
vt 0.720000 1.000000
vt 0.700000 0.500000
vt 0.700000 1.000000
vt 0.680000 0.500000
vt 0.680000 1.000000
vt 0.660000 0.500000
vt 0.660000 1.000000
vt 0.640000 0.500000
vt 0.640000 1.000000
vt 0.620000 0.500000
vt 0.620000 1.000000
vt 0.600000 0.500000
vt 0.600000 1.000000
vt 0.580000 0.500000
vt 0.580000 1.000000
vt 0.560000 0.500000
vt 0.560000 1.000000
vt 0.540000 0.500000
vt 0.540000 1.000000
vt 0.520000 0.500000
vt 0.520000 1.000000
vt 0.500000 0.500000
vt 0.500000 1.000000
vt 0.480000 0.500000
vt 0.480000 1.000000
vt 0.460000 0.500000
vt 0.460000 1.000000
vt 0.440000 0.500000
vt 0.440000 1.000000
vt 0.420000 0.500000
vt 0.420000 1.000000
vt 0.400000 0.500000
vt 0.400000 1.000000
vt 0.380000 0.500000
vt 0.380000 1.000000
vt 0.360000 0.500000
vt 0.360000 1.000000
vt 0.340000 0.500000
vt 0.340000 1.000000
vt 0.320000 0.500000
vt 0.320000 1.000000
vt 0.300000 0.500000
vt 0.300000 1.000000
vt 0.280000 0.500000
vt 0.280000 1.000000
vt 0.260000 0.500000
vt 0.260000 1.000000
vt 0.240000 0.500000
vt 0.240000 1.000000
vt 0.220000 0.500000
vt 0.220000 1.000000
vt 0.200000 0.500000
vt 0.200000 1.000000
vt 0.180000 0.500000
vt 0.180000 1.000000
vt 0.160000 0.500000
vt 0.160000 1.000000
vt 0.140000 0.500000
vt 0.140000 1.000000
vt 0.120000 0.500000
vt 0.120000 1.000000
vt 0.100000 0.500000
vt 0.100000 1.000000
vt 0.080000 0.500000
vt 0.080000 1.000000
vt 0.060000 0.500000
vt 0.060000 1.000000
vt 0.040000 0.500000
vt 0.190314 0.482460
vt 0.065077 0.097018
vt 0.467158 0.147813
vt 0.040000 1.000000
vt 0.020000 0.500000
vt 0.020000 1.000000
vt 0.000000 0.500000
vt 0.838350 0.473146
vt 0.914291 0.075048
vt 0.521746 0.175836
vt 0.309686 0.482460
vt 0.280080 0.488108
vt 0.250000 0.490000
vt 0.219920 0.488108
vt 0.161650 0.473146
vt 0.134379 0.460314
vt 0.108932 0.444164
vt 0.085709 0.424952
vt 0.065077 0.402982
vt 0.047361 0.378598
vt 0.032842 0.352187
vt 0.021746 0.324164
vt 0.014251 0.294972
vt 0.010474 0.265070
vt 0.010474 0.234930
vt 0.014251 0.205028
vt 0.021746 0.175836
vt 0.032842 0.147813
vt 0.047361 0.121402
vt 0.085709 0.075048
vt 0.108932 0.055836
vt 0.134379 0.039686
vt 0.161650 0.026854
vt 0.190314 0.017540
vt 0.219920 0.011892
vt 0.250000 0.010000
vt 0.280080 0.011892
vt 0.309686 0.017540
vt 0.338350 0.026854
vt 0.365621 0.039686
vt 0.391068 0.055836
vt 0.414291 0.075048
vt 0.434923 0.097018
vt 0.452639 0.121402
vt 0.478254 0.175836
vt 0.485749 0.205028
vt 0.489526 0.234930
vt 0.489526 0.265070
vt 0.485749 0.294972
vt 0.478254 0.324164
vt 0.467158 0.352187
vt 0.452639 0.378598
vt 0.434923 0.402982
vt 0.414291 0.424952
vt 0.391068 0.444164
vt 0.365621 0.460314
vt 0.338350 0.473146
vt 0.000000 1.000000
vt 0.719920 0.488108
vt 0.750000 0.490000
vt 0.780080 0.488108
vt 0.809686 0.482460
vt 0.865621 0.460314
vt 0.891068 0.444164
vt 0.914291 0.424952
vt 0.934923 0.402982
vt 0.952639 0.378598
vt 0.967158 0.352187
vt 0.978254 0.324164
vt 0.985749 0.294972
vt 0.989526 0.265070
vt 0.989526 0.234930
vt 0.985749 0.205028
vt 0.978254 0.175836
vt 0.967158 0.147813
vt 0.952639 0.121402
vt 0.934923 0.097018
vt 0.891068 0.055836
vt 0.865621 0.039686
vt 0.838350 0.026854
vt 0.809686 0.017540
vt 0.780080 0.011892
vt 0.750000 0.010000
vt 0.719920 0.011892
vt 0.690314 0.017540
vt 0.661650 0.026854
vt 0.634379 0.039686
vt 0.608932 0.055836
vt 0.585709 0.075048
vt 0.565077 0.097018
vt 0.547361 0.121402
vt 0.532842 0.147813
vt 0.514251 0.205028
vt 0.510474 0.234930
vt 0.510474 0.265070
vt 0.514251 0.294972
vt 0.521746 0.324164
vt 0.532842 0.352187
vt 0.547361 0.378598
vt 0.565077 0.402982
vt 0.585709 0.424952
vt 0.608932 0.444164
vt 0.634379 0.460314
vt 0.661650 0.473146
vt 0.690314 0.482460
s 1
f 2/1/1 3/2/2 1/3/1
f 4/4/2 5/5/3 3/2/2
f 6/6/3 7/7/4 5/5/3
f 8/8/4 9/9/5 7/7/4
f 10/10/5 11/11/6 9/9/5
f 12/12/6 13/13/7 11/11/6
f 14/14/8 15/15/9 13/13/7
f 16/16/9 17/17/10 15/15/9
f 18/18/10 19/19/11 17/17/10
f 20/20/11 21/21/12 19/19/11
f 22/22/12 23/23/13 21/21/12
f 24/24/13 25/25/14 23/23/13
f 26/26/14 27/27/15 25/25/14
f 28/28/15 29/29/16 27/27/15
f 30/30/16 31/31/17 29/29/16
f 32/32/17 33/33/18 31/31/17
f 34/34/18 35/35/19 33/33/18
f 36/36/19 37/37/20 35/35/19
f 38/38/20 39/39/21 37/37/20
f 40/40/22 41/41/23 39/39/21
f 42/42/23 43/43/24 41/41/23
f 44/44/24 45/45/25 43/43/24
f 46/46/25 47/47/26 45/45/25
f 48/48/26 49/49/27 47/47/26
f 50/50/27 51/51/28 49/49/27
f 52/52/28 53/53/29 51/51/28
f 54/54/29 55/55/30 53/53/29
f 56/56/30 57/57/31 55/55/30
f 58/58/31 59/59/32 57/57/31
f 60/60/32 61/61/33 59/59/32
f 62/62/33 63/63/34 61/61/33
f 64/64/35 65/65/36 63/63/34
f 66/66/36 67/67/37 65/65/36
f 68/68/37 69/69/38 67/67/37
f 70/70/38 71/71/39 69/69/38
f 72/72/39 73/73/40 71/71/39
f 74/74/40 75/75/41 73/73/40
f 76/76/41 77/77/42 75/75/41
f 78/78/42 79/79/43 77/77/42
f 80/80/43 81/81/44 79/79/43
f 82/82/44 83/83/45 81/81/44
f 84/84/45 85/85/46 83/83/45
f 86/86/46 87/87/47 85/85/46
f 88/88/47 89/89/48 87/87/47
f 90/90/49 91/91/50 89/89/48
f 92/92/50 93/93/51 91/91/50
f 94/94/51 95/95/52 93/93/51
f 96/96/52 97/97/53 95/95/52
f 98/98/54 66/99/54 34/100/54
f 98/101/53 99/102/55 97/97/53
f 100/103/55 1/104/1 99/102/55
f 7/105/56 39/106/56 71/107/56
f 2/1/1 4/4/2 3/2/2
f 4/4/2 6/6/3 5/5/3
f 6/6/3 8/8/4 7/7/4
f 8/8/4 10/10/5 9/9/5
f 10/10/5 12/12/6 11/11/6
f 12/12/6 14/14/8 13/13/7
f 14/14/8 16/16/9 15/15/9
f 16/16/9 18/18/10 17/17/10
f 18/18/10 20/20/11 19/19/11
f 20/20/11 22/22/12 21/21/12
f 22/22/12 24/24/13 23/23/13
f 24/24/13 26/26/14 25/25/14
f 26/26/14 28/28/15 27/27/15
f 28/28/15 30/30/16 29/29/16
f 30/30/16 32/32/17 31/31/17
f 32/32/17 34/34/18 33/33/18
f 34/34/18 36/36/19 35/35/19
f 36/36/19 38/38/20 37/37/20
f 38/38/20 40/40/22 39/39/21
f 40/40/22 42/42/23 41/41/23
f 42/42/23 44/44/24 43/43/24
f 44/44/24 46/46/25 45/45/25
f 46/46/25 48/48/26 47/47/26
f 48/48/26 50/50/27 49/49/27
f 50/50/27 52/52/28 51/51/28
f 52/52/28 54/54/29 53/53/29
f 54/54/29 56/56/30 55/55/30
f 56/56/30 58/58/31 57/57/31
f 58/58/31 60/60/32 59/59/32
f 60/60/32 62/62/33 61/61/33
f 62/62/33 64/64/35 63/63/34
f 64/64/35 66/66/36 65/65/36
f 66/66/36 68/68/37 67/67/37
f 68/68/37 70/70/38 69/69/38
f 70/70/38 72/72/39 71/71/39
f 72/72/39 74/74/40 73/73/40
f 74/74/40 76/76/41 75/75/41
f 76/76/41 78/78/42 77/77/42
f 78/78/42 80/80/43 79/79/43
f 80/80/43 82/82/44 81/81/44
f 82/82/44 84/84/45 83/83/45
f 84/84/45 86/86/46 85/85/46
f 86/86/46 88/88/47 87/87/47
f 88/88/47 90/90/49 89/89/48
f 90/90/49 92/92/50 91/91/50
f 92/92/50 94/94/51 93/93/51
f 94/94/51 96/96/52 95/95/52
f 96/96/52 98/101/53 97/97/53
f 6/108/54 4/109/54 2/110/54
f 2/110/54 100/111/54 98/98/54
f 98/98/54 96/112/54 94/113/54
f 94/113/54 92/114/54 90/115/54
f 90/115/54 88/116/54 86/117/54
f 86/117/54 84/118/54 82/119/54
f 82/119/54 80/120/54 78/121/54
f 78/121/54 76/122/54 74/123/54
f 74/123/54 72/124/54 70/125/54
f 70/125/54 68/126/54 66/99/54
f 66/99/54 64/127/54 62/128/54
f 62/128/54 60/129/54 58/130/54
f 58/130/54 56/131/54 54/132/54
f 54/132/54 52/133/54 50/134/54
f 50/134/54 48/135/54 46/136/54
f 46/136/54 44/137/54 42/138/54
f 42/138/54 40/139/54 38/140/54
f 38/140/54 36/141/54 34/100/54
f 34/100/54 32/142/54 30/143/54
f 30/143/54 28/144/54 26/145/54
f 26/145/54 24/146/54 22/147/54
f 22/147/54 20/148/54 18/149/54
f 18/149/54 16/150/54 14/151/54
f 14/151/54 12/152/54 10/153/54
f 10/153/54 8/154/54 6/108/54
f 6/108/54 2/110/54 98/98/54
f 98/98/54 94/113/54 90/115/54
f 90/115/54 86/117/54 82/119/54
f 82/119/54 78/121/54 74/123/54
f 74/123/54 70/125/54 66/99/54
f 66/99/54 62/128/54 58/130/54
f 58/130/54 54/132/54 50/134/54
f 50/134/54 46/136/54 42/138/54
f 42/138/54 38/140/54 34/100/54
f 34/100/54 30/143/54 26/145/54
f 26/145/54 22/147/54 18/149/54
f 18/149/54 14/151/54 10/153/54
f 10/153/54 6/108/54 98/98/54
f 98/98/54 90/115/54 82/119/54
f 82/119/54 74/123/54 66/99/54
f 66/99/54 58/130/54 50/134/54
f 50/134/54 42/138/54 34/100/54
f 34/100/54 26/145/54 18/149/54
f 18/149/54 10/153/54 98/98/54
f 98/98/54 82/119/54 66/99/54
f 66/99/54 50/134/54 34/100/54
f 34/100/54 18/149/54 98/98/54
f 98/101/53 100/103/55 99/102/55
f 100/103/55 2/155/1 1/104/1
f 99/156/56 1/157/56 3/158/56
f 3/158/56 5/159/56 7/105/56
f 7/105/56 9/160/56 11/161/56
f 11/161/56 13/162/56 15/163/56
f 15/163/56 17/164/56 19/165/56
f 19/165/56 21/166/56 23/167/56
f 23/167/56 25/168/56 27/169/56
f 27/169/56 29/170/56 31/171/56
f 31/171/56 33/172/56 35/173/56
f 35/173/56 37/174/56 39/106/56
f 39/106/56 41/175/56 43/176/56
f 43/176/56 45/177/56 47/178/56
f 47/178/56 49/179/56 51/180/56
f 51/180/56 53/181/56 55/182/56
f 55/182/56 57/183/56 59/184/56
f 59/184/56 61/185/56 63/186/56
f 63/186/56 65/187/56 67/188/56
f 67/188/56 69/189/56 71/107/56
f 71/107/56 73/190/56 75/191/56
f 75/191/56 77/192/56 79/193/56
f 79/193/56 81/194/56 83/195/56
f 83/195/56 85/196/56 87/197/56
f 87/197/56 89/198/56 91/199/56
f 91/199/56 93/200/56 95/201/56
f 95/201/56 97/202/56 99/156/56
f 99/156/56 3/158/56 7/105/56
f 7/105/56 11/161/56 15/163/56
f 15/163/56 19/165/56 23/167/56
f 23/167/56 27/169/56 31/171/56
f 31/171/56 35/173/56 39/106/56
f 39/106/56 43/176/56 47/178/56
f 47/178/56 51/180/56 55/182/56
f 55/182/56 59/184/56 63/186/56
f 63/186/56 67/188/56 71/107/56
f 71/107/56 75/191/56 79/193/56
f 79/193/56 83/195/56 87/197/56
f 87/197/56 91/199/56 95/201/56
f 95/201/56 99/156/56 7/105/56
f 7/105/56 15/163/56 23/167/56
f 23/167/56 31/171/56 39/106/56
f 39/106/56 47/178/56 55/182/56
f 55/182/56 63/186/56 71/107/56
f 71/107/56 79/193/56 87/197/56
f 87/197/56 95/201/56 7/105/56
f 7/105/56 23/167/56 39/106/56
f 39/106/56 55/182/56 71/107/56
f 71/107/56 87/197/56 7/105/56
